<svg width="20" height="20" viewBox="0 0 20 20" fill="none" xmlns="http://www.w3.org/2000/svg">
<path d="M18.6723 4.37734V1.375C18.6723 0.960156 18.3371 0.625 17.9223 0.625H2.07851C1.66366 0.625 1.32851 0.960156 1.32851 1.375V4.37734C0.937099 4.40078 0.625381 4.72656 0.625381 5.125V8.21172C0.62388 8.77901 0.738747 9.34058 0.962881 9.86172C1.06366 10.1008 1.18788 10.3258 1.32851 10.5391V18.625C1.32851 19.0375 1.66366 19.375 2.07851 19.375H17.9223C18.3371 19.375 18.6723 19.0398 18.6723 18.625V10.5391C18.8151 10.3252 18.9375 10.0985 19.0379 9.86172C19.2605 9.33906 19.3754 8.78359 19.3754 8.21172V5.125C19.3754 4.72656 19.0637 4.40078 18.6723 4.37734ZM3.01601 2.3125H16.9848V4.375H3.01601V2.3125ZM11.5004 17.6898H8.50038V15.25H11.5004V17.6898ZM16.9941 17.6898H13.0004V14.5C13.0004 14.0852 12.6652 13.75 12.2504 13.75H7.75038C7.33554 13.75 7.00038 14.0852 7.00038 14.5V17.6898H3.01601V12.0133C3.08397 12.0461 3.15429 12.0789 3.22694 12.107C3.7496 12.3273 4.30507 12.4375 4.87694 12.4375C5.44882 12.4375 6.00194 12.3273 6.52694 12.107C6.85038 11.9711 7.15507 11.7977 7.43397 11.5891C7.43866 11.5867 7.44335 11.5867 7.44804 11.5891C7.72781 11.7985 8.03248 11.9725 8.35507 12.107C8.87772 12.3273 9.43319 12.4375 10.0051 12.4375C10.5769 12.4375 11.1301 12.3273 11.6551 12.107C11.9785 11.9711 12.2832 11.7977 12.5621 11.5891C12.5668 11.5867 12.5715 11.5867 12.5762 11.5891C12.8559 11.7985 13.1606 11.9725 13.4832 12.107C14.0058 12.3273 14.5613 12.4375 15.1332 12.4375C15.7051 12.4375 16.2582 12.3273 16.7832 12.107C16.8535 12.0766 16.9238 12.0461 16.9941 12.0133V17.6898ZM17.6879 8.21172C17.6879 9.61328 16.5394 10.75 15.1262 10.75C14.1699 10.75 13.3355 10.232 12.8949 9.46328C12.8269 9.34609 12.7051 9.27344 12.5691 9.27344H12.5551C12.4215 9.27344 12.2973 9.34609 12.2293 9.46328C12.0044 9.85543 11.6798 10.1811 11.2883 10.4071C10.8968 10.6331 10.4524 10.7514 10.0004 10.75C9.04647 10.75 8.21444 10.2344 7.77382 9.46797C7.70351 9.34844 7.57694 9.27344 7.43866 9.27344C7.30038 9.27344 7.17147 9.34844 7.10351 9.46797C6.87734 9.85862 6.55224 10.1828 6.16096 10.4079C5.76967 10.6329 5.326 10.7509 4.8746 10.75C3.46132 10.75 2.31288 9.61328 2.31288 8.21172V6.07422C2.31288 6.06719 2.31757 6.0625 2.3246 6.0625H17.6762C17.6832 6.0625 17.6879 6.06719 17.6879 6.07422V8.21172Z" fill="#1890FF"/>
</svg>
